<svg width="190" height="97" viewBox="0 0 190 97" fill="none" xmlns="http://www.w3.org/2000/svg">
<rect x="18" y="19" width="172" height="52" rx="26" fill="#091A71"/>
<g filter="url(#filter0_d_9_3)">
<circle cx="38.5" cy="44.5" r="34.5" fill="white"/>
</g>
<path d="M92.544 38.656V40.16H86.56V43.248H91.984V44.8H86.56V50H84.896V38.656H92.544ZM95.1526 50H93.6006V42.336H95.1366L95.1526 50ZM94.3686 40.672C94.0913 40.672 93.8566 40.576 93.6646 40.384C93.4726 40.1813 93.3766 39.9413 93.3766 39.664C93.3766 39.3867 93.4726 39.152 93.6646 38.96C93.8566 38.768 94.0913 38.672 94.3686 38.672C94.646 38.672 94.8806 38.768 95.0726 38.96C95.2646 39.152 95.3606 39.3867 95.3606 39.664C95.3606 39.9413 95.2646 40.1813 95.0726 40.384C94.8806 40.576 94.646 40.672 94.3686 40.672ZM98.416 50H96.864V42.336H98.096L98.416 43.008C98.672 42.7627 98.9813 42.56 99.344 42.4C99.7067 42.24 100.101 42.16 100.528 42.16C100.805 42.16 101.12 42.2027 101.472 42.288C101.824 42.3733 102.149 42.5333 102.448 42.768C102.757 43.0027 103.013 43.328 103.216 43.744C103.429 44.16 103.536 44.6987 103.536 45.36V50H102.064V45.344C102.064 45.0133 102.011 44.736 101.904 44.512C101.808 44.2773 101.675 44.0907 101.504 43.952C101.344 43.8133 101.157 43.7173 100.944 43.664C100.741 43.6 100.528 43.568 100.304 43.568C100.133 43.568 99.936 43.6 99.712 43.664C99.4987 43.728 99.296 43.8347 99.104 43.984C98.912 44.1227 98.7467 44.304 98.608 44.528C98.48 44.7413 98.416 45.008 98.416 45.328V50ZM112.771 38.32V50H111.539L111.219 49.2C110.91 49.5093 110.558 49.7547 110.163 49.936C109.768 50.1067 109.315 50.192 108.803 50.192C108.27 50.192 107.779 50.0907 107.331 49.888C106.883 49.6747 106.494 49.3867 106.163 49.024C105.832 48.6613 105.571 48.2347 105.379 47.744C105.198 47.2533 105.107 46.7307 105.107 46.176C105.107 45.6213 105.198 45.0987 105.379 44.608C105.571 44.1173 105.832 43.6907 106.163 43.328C106.494 42.9653 106.883 42.6827 107.331 42.48C107.779 42.2667 108.27 42.16 108.803 42.16C109.336 42.16 109.8 42.2507 110.195 42.432C110.59 42.6027 110.931 42.848 111.219 43.168V38.32H112.771ZM108.931 48.816C109.251 48.816 109.544 48.7627 109.811 48.656C110.088 48.5493 110.328 48.3893 110.531 48.176C110.744 47.952 110.91 47.6747 111.027 47.344C111.144 47.0133 111.203 46.624 111.203 46.176C111.203 45.696 111.144 45.2907 111.027 44.96C110.91 44.6293 110.744 44.3627 110.531 44.16C110.328 43.9467 110.088 43.7973 109.811 43.712C109.544 43.616 109.251 43.568 108.931 43.568C108.622 43.568 108.328 43.6373 108.051 43.776C107.774 43.904 107.534 44.0853 107.331 44.32C107.128 44.5547 106.968 44.832 106.851 45.152C106.734 45.472 106.675 45.8133 106.675 46.176C106.675 46.5387 106.734 46.88 106.851 47.2C106.968 47.52 107.128 47.8027 107.331 48.048C107.534 48.2827 107.774 48.4693 108.051 48.608C108.328 48.7467 108.622 48.816 108.931 48.816ZM126.144 42.336V50H124.832L124.592 49.12C124.326 49.472 123.984 49.7387 123.568 49.92C123.152 50.1013 122.731 50.192 122.304 50.192C121.771 50.192 121.27 50.0907 120.8 49.888C120.342 49.6747 119.936 49.3867 119.584 49.024C119.243 48.6613 118.971 48.2347 118.768 47.744C118.566 47.2533 118.464 46.7307 118.464 46.176C118.464 45.6213 118.566 45.0987 118.768 44.608C118.971 44.1173 119.243 43.6907 119.584 43.328C119.936 42.9653 120.342 42.6827 120.8 42.48C121.27 42.2667 121.771 42.16 122.304 42.16C122.731 42.16 123.142 42.2453 123.536 42.416C123.931 42.576 124.283 42.832 124.592 43.184L124.832 42.336H126.144ZM122.304 48.816C122.614 48.816 122.907 48.7467 123.184 48.608C123.462 48.4693 123.702 48.2827 123.904 48.048C124.107 47.8027 124.267 47.52 124.384 47.2C124.502 46.88 124.56 46.5387 124.56 46.176C124.56 45.8133 124.502 45.472 124.384 45.152C124.267 44.832 124.107 44.5547 123.904 44.32C123.702 44.0747 123.462 43.8827 123.184 43.744C122.907 43.6053 122.614 43.536 122.304 43.536C121.995 43.536 121.702 43.6053 121.424 43.744C121.147 43.8827 120.907 44.0747 120.704 44.32C120.502 44.5547 120.342 44.832 120.224 45.152C120.107 45.472 120.048 45.8133 120.048 46.176C120.048 46.5387 120.107 46.88 120.224 47.2C120.342 47.52 120.502 47.8027 120.704 48.048C120.907 48.2827 121.147 48.4693 121.424 48.608C121.702 48.7467 121.995 48.816 122.304 48.816ZM136.472 38.656C136.92 38.656 137.341 38.7413 137.736 38.912C138.131 39.0827 138.472 39.312 138.76 39.6C139.059 39.888 139.293 40.2293 139.464 40.624C139.635 41.008 139.72 41.424 139.72 41.872C139.72 42.32 139.635 42.7413 139.464 43.136C139.293 43.5307 139.059 43.872 138.76 44.16C138.472 44.448 138.131 44.6773 137.736 44.848C137.341 45.008 136.92 45.088 136.472 45.088L133.528 45.104V50H131.864V38.656H136.472ZM136.472 43.536C136.696 43.536 136.904 43.4933 137.096 43.408C137.299 43.312 137.475 43.1893 137.624 43.04C137.773 42.8907 137.891 42.7147 137.976 42.512C138.061 42.2987 138.104 42.0747 138.104 41.84C138.104 41.6053 138.061 41.3867 137.976 41.184C137.891 40.9813 137.773 40.8053 137.624 40.656C137.475 40.496 137.299 40.3733 137.096 40.288C136.904 40.192 136.696 40.144 136.472 40.144H133.528V43.536H136.472ZM142.841 38.32V50H141.289V38.32H142.841ZM151.863 42.336V50H150.551L150.311 49.12C150.044 49.472 149.703 49.7387 149.287 49.92C148.871 50.1013 148.45 50.192 148.023 50.192C147.49 50.192 146.988 50.0907 146.519 49.888C146.06 49.6747 145.655 49.3867 145.303 49.024C144.962 48.6613 144.69 48.2347 144.487 47.744C144.284 47.2533 144.183 46.7307 144.183 46.176C144.183 45.6213 144.284 45.0987 144.487 44.608C144.69 44.1173 144.962 43.6907 145.303 43.328C145.655 42.9653 146.06 42.6827 146.519 42.48C146.988 42.2667 147.49 42.16 148.023 42.16C148.45 42.16 148.86 42.2453 149.255 42.416C149.65 42.576 150.002 42.832 150.311 43.184L150.551 42.336H151.863ZM148.023 48.816C148.332 48.816 148.626 48.7467 148.903 48.608C149.18 48.4693 149.42 48.2827 149.623 48.048C149.826 47.8027 149.986 47.52 150.103 47.2C150.22 46.88 150.279 46.5387 150.279 46.176C150.279 45.8133 150.22 45.472 150.103 45.152C149.986 44.832 149.826 44.5547 149.623 44.32C149.42 44.0747 149.18 43.8827 148.903 43.744C148.626 43.6053 148.332 43.536 148.023 43.536C147.714 43.536 147.42 43.6053 147.143 43.744C146.866 43.8827 146.626 44.0747 146.423 44.32C146.22 44.5547 146.06 44.832 145.943 45.152C145.826 45.472 145.767 45.8133 145.767 46.176C145.767 46.5387 145.826 46.88 145.943 47.2C146.06 47.52 146.22 47.8027 146.423 48.048C146.626 48.2827 146.866 48.4693 147.143 48.608C147.42 48.7467 147.714 48.816 148.023 48.816ZM156.963 50.192C156.43 50.192 155.928 50.0907 155.459 49.888C155 49.6747 154.595 49.3867 154.243 49.024C153.902 48.6613 153.63 48.2347 153.427 47.744C153.224 47.2533 153.123 46.7307 153.123 46.176C153.123 45.6213 153.224 45.0987 153.427 44.608C153.63 44.1173 153.902 43.6907 154.243 43.328C154.595 42.9653 155 42.6827 155.459 42.48C155.928 42.2667 156.43 42.16 156.963 42.16C157.582 42.16 158.152 42.2987 158.675 42.576C159.198 42.8533 159.635 43.232 159.987 43.712L158.899 44.56C158.686 44.2507 158.414 44.0107 158.083 43.84C157.763 43.6587 157.416 43.568 157.043 43.568C156.723 43.568 156.419 43.6373 156.131 43.776C155.843 43.904 155.592 44.0853 155.379 44.32C155.166 44.5547 154.995 44.832 154.867 45.152C154.75 45.472 154.691 45.8133 154.691 46.176C154.691 46.5387 154.75 46.88 154.867 47.2C154.995 47.52 155.166 47.8027 155.379 48.048C155.592 48.2827 155.843 48.4693 156.131 48.608C156.419 48.7467 156.723 48.816 157.043 48.816C157.459 48.816 157.838 48.704 158.179 48.48C158.52 48.256 158.798 47.9573 159.011 47.584L160.067 48.512C159.726 49.024 159.283 49.4347 158.739 49.744C158.195 50.0427 157.603 50.192 156.963 50.192ZM165.2 50.192C164.645 50.192 164.123 50.0907 163.632 49.888C163.152 49.6747 162.731 49.3867 162.368 49.024C162.005 48.6613 161.717 48.2347 161.504 47.744C161.301 47.2533 161.2 46.7307 161.2 46.176C161.2 45.6213 161.296 45.0987 161.488 44.608C161.691 44.1173 161.957 43.6907 162.288 43.328C162.629 42.9653 163.024 42.6827 163.472 42.48C163.92 42.2667 164.4 42.16 164.912 42.16C165.435 42.16 165.915 42.2507 166.352 42.432C166.8 42.6133 167.184 42.896 167.504 43.28C167.835 43.664 168.091 44.1547 168.272 44.752C168.453 45.3387 168.544 46.0427 168.544 46.864H162.848C162.923 47.1413 163.04 47.4027 163.2 47.648C163.36 47.8827 163.547 48.0907 163.76 48.272C163.984 48.4427 164.229 48.576 164.496 48.672C164.773 48.768 165.061 48.816 165.36 48.816C165.765 48.816 166.139 48.7413 166.48 48.592C166.832 48.4427 167.131 48.2453 167.376 48L168.336 48.96C167.963 49.3333 167.504 49.632 166.96 49.856C166.427 50.08 165.84 50.192 165.2 50.192ZM164.912 43.568C164.667 43.568 164.432 43.616 164.208 43.712C163.995 43.808 163.792 43.9413 163.6 44.112C163.419 44.2827 163.259 44.4853 163.12 44.72C162.992 44.9547 162.896 45.2107 162.832 45.488H166.88C166.859 45.232 166.8 44.9867 166.704 44.752C166.608 44.5173 166.475 44.3147 166.304 44.144C166.133 43.9627 165.931 43.824 165.696 43.728C165.472 43.6213 165.211 43.568 164.912 43.568Z" fill="white"/>
<g opacity="0.8">
<path d="M33.5833 50.9167C39.8426 50.9167 44.9167 45.8426 44.9167 39.5833C44.9167 33.3241 39.8426 28.25 33.5833 28.25C27.3241 28.25 22.25 33.3241 22.25 39.5833C22.25 45.8426 27.3241 50.9167 33.5833 50.9167Z" stroke="#091A71" stroke-width="3" stroke-linecap="round" stroke-linejoin="round"/>
<path d="M47.75 53.75L41.5875 47.5875" stroke="#091A71" stroke-width="3" stroke-linecap="round" stroke-linejoin="round"/>
</g>
<defs>
<filter id="filter0_d_9_3" x="0" y="0" width="97" height="97" filterUnits="userSpaceOnUse" color-interpolation-filters="sRGB">
<feFlood flood-opacity="0" result="BackgroundImageFix"/>
<feColorMatrix in="SourceAlpha" type="matrix" values="0 0 0 0 0 0 0 0 0 0 0 0 0 0 0 0 0 0 127 0" result="hardAlpha"/>
<feOffset dx="10" dy="4"/>
<feGaussianBlur stdDeviation="7"/>
<feComposite in2="hardAlpha" operator="out"/>
<feColorMatrix type="matrix" values="0 0 0 0 0 0 0 0 0 0 0 0 0 0 0 0 0 0 0.13 0"/>
<feBlend mode="normal" in2="BackgroundImageFix" result="effect1_dropShadow_9_3"/>
<feBlend mode="normal" in="SourceGraphic" in2="effect1_dropShadow_9_3" result="shape"/>
</filter>
</defs>
</svg>
